<svg xmlns="http://www.w3.org/2000/svg" version="1.1" xmlns:xlink="http://www.w3.org/1999/xlink" xmlns:svgjs="http://svgjs.dev/svgjs" viewBox="0 0 800 800"><defs><filter id="bbburst-blur-1" x="-100%" y="-100%" width="400%" height="400%"><feGaussianBlur in="SourceGraphic" stdDeviation="1"></feGaussianBlur></filter><filter id="bbburst-blur-2" x="-100%" y="-100%" width="400%" height="400%"><feGaussianBlur in="SourceGraphic" stdDeviation="2"></feGaussianBlur></filter><filter id="bbburst-blur-3" x="-100%" y="-100%" width="400%" height="400%"><feGaussianBlur in="SourceGraphic" stdDeviation="4"></feGaussianBlur></filter><filter id="bbburst-blur-4" x="-100%" y="-100%" width="400%" height="400%"><feGaussianBlur in="SourceGraphic" stdDeviation="12"></feGaussianBlur></filter><symbol id="bbburst-shape-1" viewBox="0 0 194 167"><path d="m97 0 96.129 166.5H.871L97 0Z"></path></symbol><symbol id="bbburst-shape-4" viewBox="0 0 149 143"><path d="M71.647 2.781c.898-2.764 4.808-2.764 5.706 0l15.445 47.534a3 3 0 0 0 2.853 2.073h49.98c2.906 0 4.115 3.719 1.764 5.427L106.96 87.193a2.999 2.999 0 0 0-1.09 3.354l15.445 47.534c.898 2.764-2.266 5.062-4.617 3.354l-40.435-29.378a3 3 0 0 0-3.526 0l-40.435 29.378c-2.351 1.708-5.515-.59-4.617-3.354L43.13 90.547a3 3 0 0 0-1.09-3.354L1.605 57.815c-2.35-1.708-1.142-5.427 1.764-5.427h49.98a3 3 0 0 0 2.853-2.073L71.647 2.781Z"></path></symbol><symbol id="bbburst-shape-6" viewBox="0 0 133 116"><path d="M59.7487 10.2513c-13.6683-13.66839-35.8291-13.66839-49.4974 0-13.66839 13.6683-13.66839 35.8291 0 49.4974l49.4974-49.4974ZM66.5 66.5 41.7513 91.2487 66.5 115.997l24.7487-24.7483L66.5 66.5Zm56.249-6.7513c13.668-13.6683 13.668-35.8291 0-49.4974-13.669-13.66839-35.8294-13.66839-49.4977 0l49.4977 49.4974Zm-112.4977 0 31.5 31.5 49.4974-49.4974-31.5-31.5-49.4974 49.4974Zm80.9974 31.5 31.5003-31.5-49.4977-49.4974-31.5 31.5 49.4974 49.4974Z"></path></symbol><symbol id="bbburst-shape-8" viewBox="0 0 87 168"><path d="m12 12 31.2546 18.0749c16.4102 9.4902 20.014 31.6325 7.4603 45.8369L36.3296 92.1884c-12.5684 14.2206-8.9394 36.3916 7.5068 45.8636L75 156" stroke-width="14" stroke-linecap="round" stroke-linejoin="round"></path></symbol><symbol id="bbburst-shape-10" viewBox="0 0 145 145"><circle cx="72.5" cy="72.5" r="61.5" fill="none" stroke-width="22"></circle></symbol></defs><use xlink:href="#bbburst-shape-6" width="16.11796166745399" opacity="0.8677730003083569" transform="matrix(0.8722063844927135,-0.489138040690099,0.489138040690099,0.8722063844927135,-186.37465864013026,323.84228041741886)" fill="#ff5c58"></use><use xlink:href="#bbburst-shape-1" width="46.08500871213643" opacity="0.472063956655538" transform="matrix(0.9217495342683123,-0.38778576053814734,0.38778576053814734,0.9217495342683123,45.9841928114796,-38.55454859967409)" fill="#2c2891" filter="url(#bbburst-blur-1)"></use><use xlink:href="#bbburst-shape-4" width="24.86779484066154" opacity="0.6589452462933498" transform="matrix(0.9326432787048644,0.3607998263395378,-0.3607998263395378,0.9326432787048644,166.33402253567735,83.08380472885909)" fill="#00a19d"></use><use xlink:href="#bbburst-shape-4" width="46.07657946865058" opacity="0.4550454340631147" transform="matrix(0.9999542483700506,-0.009565624218367822,0.009565624218367822,0.9999542483700506,498.53646957322894,255.60601982005062)" fill="#ff5c58" filter="url(#bbburst-blur-1)"></use><use xlink:href="#bbburst-shape-8" width="33.208525199888825" opacity="0.32142350077467996" transform="matrix(0.8325024827400992,0.5540213138784201,-0.5540213138784201,0.8325024827400992,289.75936452246657,-215.80706574176276)" fill="none" stroke="#ffbd9b" filter="url(#bbburst-blur-2)"></use><use xlink:href="#bbburst-shape-4" width="46.97790832954311" opacity="0.32646705211079086" transform="matrix(0.9114256090863458,-0.4114648941302082,0.4114648941302082,0.9114256090863458,454.09142376148446,235.46912012616218)" fill="#00a19d" filter="url(#bbburst-blur-2)"></use><use xlink:href="#bbburst-shape-6" width="16.255284728048892" opacity="0.7998903767639983" transform="matrix(0.7340891619538972,-0.6790530924028142,0.6790530924028142,0.7340891619538972,-247.47518050582312,314.0525688266102)" fill="#ffa6d5"></use><use xlink:href="#bbburst-shape-10" width="13.750164159145637" opacity="0.9479041027059274" transform="matrix(0.9274219947314521,0.3740166355769945,-0.3740166355769945,0.9274219947314521,159.27695178628414,376.8967593289817)" fill="none" stroke="#00a19d"></use><use xlink:href="#bbburst-shape-4" width="20.296428369532908" opacity="0.7571713427374581" transform="matrix(0.9537676766726929,0.30054487008494024,-0.30054487008494024,0.9537676766726929,143.88603440067152,174.93325106518097)" fill="#2c2891"></use><use xlink:href="#bbburst-shape-10" width="42.8073524186388" opacity="0.6007884157735177" transform="matrix(0.7110873643345257,0.7031036625447045,-0.7031036625447045,0.7110873643345257,551.4355455664581,221.3946479878552)" fill="none" stroke="#ff5c58" filter="url(#bbburst-blur-1)"></use><use xlink:href="#bbburst-shape-6" width="30.80877882367429" opacity="0.637432464015534" transform="matrix(0.7577953363146327,-0.6524923204603965,0.6524923204603965,0.7577953363146327,62.28435386979908,368.1503023379538)" fill="#2c2891" filter="url(#bbburst-blur-1)"></use><use xlink:href="#bbburst-shape-8" width="21.530818155394645" opacity="0.7894630759966214" transform="matrix(0.8306692882767057,-0.5567661389792586,0.5567661389792586,0.8306692882767057,-40.45901438740398,385.5659701589448)" fill="none" stroke="#00a19d"></use><use xlink:href="#bbburst-shape-6" width="8.309660250426631" opacity="0.9684713975053236" transform="matrix(0.9999187616918778,0.012746372683306598,-0.012746372683306598,0.9999187616918778,28.314217036118215,384.3294839410454)" fill="#ff5c58"></use><use xlink:href="#bbburst-shape-6" width="17.75248350577695" opacity="0.8475817065784785" transform="matrix(0.9909870011620086,-0.13395806630408388,0.13395806630408388,0.9909870011620086,71.1532075593471,331.3072595936133)" fill="#ffa6d5"></use><use xlink:href="#bbburst-shape-6" width="48.91345787808636" opacity="0.5357993403903059" transform="matrix(0.9484079239045418,0.3170526925844929,-0.3170526925844929,0.9484079239045418,490.31782311359177,156.07278030387306)" fill="#2c2891" filter="url(#bbburst-blur-1)"></use><use xlink:href="#bbburst-shape-6" width="75.56498157794599" opacity="0.2711894508741698" transform="matrix(0.9924057926433368,0.1230070840559617,-0.1230070840559617,0.9924057926433368,627.6523169890258,8.806141836995494)" fill="#ff5c58" filter="url(#bbburst-blur-2)"></use><use xlink:href="#bbburst-shape-4" width="11.265091167700358" opacity="0.9445843351349393" transform="matrix(0.9905645754274105,0.1370467872965801,-0.1370467872965801,0.9905645754274105,98.90925608497764,378.44304947433136)" fill="#ffa6d5"></use><use xlink:href="#bbburst-shape-6" width="18.840108821278314" opacity="0.874658493771626" transform="matrix(0.8612470980528653,0.5081864186452825,-0.5081864186452825,0.8612470980528653,250.04078499624728,338.02545600445006)" fill="#ffa6d5"></use><use xlink:href="#bbburst-shape-8" width="32.403734215677055" opacity="0.23533919539059167" transform="matrix(0.7554538246900274,-0.6552018916038089,0.6552018916038089,0.7554538246900274,-163.2004784124833,-248.1098231401183)" fill="none" stroke="#ffa6d5" filter="url(#bbburst-blur-3)"></use><use xlink:href="#bbburst-shape-8" width="30.962997453677207" opacity="0.6345377307320581" transform="matrix(0.9888972093597055,0.14860117536744757,-0.14860117536744757,0.9888972093597055,147.9248054082118,51.727238660784565)" fill="none" stroke="#ffa6d5" filter="url(#bbburst-blur-1)"></use><use xlink:href="#bbburst-shape-4" width="37.81238020112167" opacity="0.43309505716743824" transform="matrix(0.8727365891563986,-0.48819140298417324,0.48819140298417324,0.8727365891563986,-70.20148075957053,-88.78143243783344)" fill="#00a19d" filter="url(#bbburst-blur-2)"></use><use xlink:href="#bbburst-shape-6" width="42.897569183506" opacity="0.40621153087583295" transform="matrix(0.8157454625251399,0.5784110479318713,-0.5784110479318713,0.8157454625251399,258.658446083235,-130.8007258342206)" fill="#00a19d" filter="url(#bbburst-blur-2)"></use><use xlink:href="#bbburst-shape-1" width="41.48492808338748" opacity="0.3746567926894486" transform="matrix(0.8236159298914522,-0.5671479525036114,0.5671479525036114,0.8236159298914522,378.43313925547903,421.207631186353)" fill="#ffa6d5" filter="url(#bbburst-blur-2)"></use><use xlink:href="#bbburst-shape-8" width="20.307901927831573" opacity="0.8147596285020733" transform="matrix(0.9423577196691706,0.33460712511828095,-0.33460712511828095,0.9423577196691706,214.6590302512157,257.9664799105688)" fill="none" stroke="#ff5c58"></use><use xlink:href="#bbburst-shape-10" width="32.45002511441875" opacity="0.7204436406466659" transform="matrix(0.9631951416074622,-0.26880312346358765,0.26880312346358765,0.9631951416074622,135.8567808859408,313.8800617707154)" fill="none" stroke="#ffa6d5"></use><use xlink:href="#bbburst-shape-6" width="26.29322619755403" opacity="0.5909811543989973" transform="matrix(0.9372933392025895,-0.3485415273485494,0.3485415273485494,0.9372933392025895,-113.88809263587882,22.40135666710256)" fill="#ffa6d5" filter="url(#bbburst-blur-1)"></use><use xlink:href="#bbburst-shape-10" width="42.220545200388116" opacity="0.547472136883485" transform="matrix(0.999133919814316,0.04161021841422968,-0.04161021841422968,0.999133919814316,255.43440403791632,29.005258186898686)" fill="none" stroke="#2c2891" filter="url(#bbburst-blur-1)"></use><use xlink:href="#bbburst-shape-1" width="28.803060524961463" opacity="0.5806730498028221" transform="matrix(0.9547697513568604,0.29734613145954825,-0.29734613145954825,0.9547697513568604,282.0955248614637,33.66768998779526)" fill="#ffbd9b" filter="url(#bbburst-blur-1)"></use><use xlink:href="#bbburst-shape-1" width="55.423928165552475" opacity="0.2592838276579723" transform="matrix(0.9484257128585616,0.31699947506065257,-0.31699947506065257,0.9484257128585616,501.3145068899618,-210.98665222689314)" fill="#ffbd9b" filter="url(#bbburst-blur-2)"></use><use xlink:href="#bbburst-shape-4" width="18.542870269791912" opacity="0.8409154925888892" transform="matrix(0.9656991377695112,0.2596635810259549,-0.2596635810259549,0.9656991377695112,251.61969355690917,383.95759053712777)" fill="#ffa6d5"></use><use xlink:href="#bbburst-shape-6" width="52.81338958042891" opacity="0.400183906931344" transform="matrix(0.8902477485372662,0.4554766143550385,-0.4554766143550385,0.8902477485372662,488.103442507066,-69.38539095389206)" fill="#2c2891" filter="url(#bbburst-blur-2)"></use><use xlink:href="#bbburst-shape-8" width="33.61337908525479" opacity="0.5423821776709259" transform="matrix(0.9852997967425946,0.1708341609251553,-0.1708341609251553,0.9852997967425946,170.02653467187594,-39.06620160914616)" fill="none" stroke="#ffbd9b" filter="url(#bbburst-blur-1)"></use><use xlink:href="#bbburst-shape-10" width="45.527261970218696" opacity="0.4768633462923161" transform="matrix(0.9937814577525639,0.11134816669882372,-0.11134816669882372,0.9937814577525639,383.93476406939567,22.308419101749962)" fill="none" stroke="#2c2891" filter="url(#bbburst-blur-1)"></use><use xlink:href="#bbburst-shape-4" width="30.70448013139302" opacity="0.6582720994567401" transform="matrix(0.979433251225577,-0.20176844746812042,0.20176844746812042,0.979433251225577,78.14080851330655,117.16796251574425)" fill="#ff5c58"></use><use xlink:href="#bbburst-shape-10" width="41.001236110987136" opacity="0.25098925303649144" transform="matrix(0.9993063882344496,0.037238990773375356,-0.037238990773375356,0.9993063882344496,737.4143987448934,304.8546588801507)" fill="none" stroke="#ffbd9b" filter="url(#bbburst-blur-2)"></use><use xlink:href="#bbburst-shape-8" width="17.656472754084977" opacity="0.7117471434702025" transform="matrix(0.8211772943483283,-0.570673156234599,0.570673156234599,0.8211772943483283,-205.73451635571564,189.85716184816653)" fill="none" stroke="#ffa6d5"></use><use xlink:href="#bbburst-shape-10" width="14.114194027088752" opacity="0.9093943448625454" transform="matrix(0.9501761143245345,0.31171357328022953,-0.31171357328022953,0.9501761143245345,135.4470667094864,328.82371855036706)" fill="none" stroke="#2c2891"></use><use xlink:href="#bbburst-shape-4" width="30.040047486492437" opacity="0.7535684191816818" transform="matrix(0.7280156493621686,-0.6855605110300476,0.6855605110300476,0.7280156493621686,-138.11913581258037,321.33994012244943)" fill="#ffbd9b"></use><use xlink:href="#bbburst-shape-1" width="17.09894645395012" opacity="0.8348539262552022" transform="matrix(0.7497564654083495,0.6617138676031948,-0.6617138676031948,0.7497564654083495,296.26480889604153,333.74282007366793)" fill="#2c2891"></use><use xlink:href="#bbburst-shape-4" width="16.873991574108498" opacity="0.8574531017758681" transform="matrix(0.9134754977444719,0.40689373922498406,-0.40689373922498406,0.9134754977444719,250.3933405333862,325.22777030796726)" fill="#ffbd9b"></use><use xlink:href="#bbburst-shape-6" width="34.09401242541271" opacity="0.6876256933126352" transform="matrix(0.915356597674616,0.40264413455749143,-0.40264413455749143,0.915356597674616,352.7122632378408,193.28147260493256)" fill="#2c2891"></use><use xlink:href="#bbburst-shape-4" width="55.416973589266426" opacity="0.1974901360364968" transform="matrix(0.9168850604165418,0.3991513321848675,-0.3991513321848675,0.9168850604165418,441.2887894402088,-319.2123310124128)" fill="#ffa6d5" filter="url(#bbburst-blur-3)"></use><use xlink:href="#bbburst-shape-6" width="26.49791619111208" opacity="0.7418959342245718" transform="matrix(0.9004572241813742,-0.4349445797105355,0.4349445797105355,0.9004572241813742,19.07708099606694,288.739572495352)" fill="#ffa6d5"></use><use xlink:href="#bbburst-shape-4" width="14.344890138725482" opacity="0.8829413080260502" transform="matrix(0.9999965017241053,0.0026450972669444543,-0.0026450972669444543,0.9999965017241053,108.53628213611184,376.3745040048357)" fill="#ffbd9b"></use><use xlink:href="#bbburst-shape-6" width="57.73340886124546" opacity="0.20091253859202096" transform="matrix(0.999935147612158,0.011388615800521118,-0.011388615800521118,0.999935147612158,716.8426544280047,100.97653960473804)" fill="#ff5c58" filter="url(#bbburst-blur-3)"></use><use xlink:href="#bbburst-shape-8" width="29.04366791153962" opacity="0.7396332044875759" transform="matrix(0.7889344229291918,0.6144774009818287,-0.6144774009818287,0.7889344229291918,492.5963009859403,442.46439801933786)" fill="none" stroke="#00a19d"></use><use xlink:href="#bbburst-shape-8" width="21.99972150004818" opacity="0.756587576792105" transform="matrix(0.9470310323635905,-0.32114206161814435,0.32114206161814435,0.9470310323635905,-41.961483725231986,201.4320206561983)" fill="none" stroke="#ff5c58"></use><use xlink:href="#bbburst-shape-10" width="16.111267573477463" opacity="0.9180828628657884" transform="matrix(0.9997047536687854,0.024298261090727795,-0.024298261090727795,0.9997047536687854,49.6268039196097,333.51316037838995)" fill="none" stroke="#00a19d"></use><use xlink:href="#bbburst-shape-6" width="28.341075576874285" opacity="0.702979691841165" transform="matrix(0.8554683933546279,0.5178550260171777,-0.5178550260171777,0.8554683933546279,291.0875519160903,169.41952266827047)" fill="#ffa6d5"></use><use xlink:href="#bbburst-shape-10" width="34.01928844577063" opacity="0.6735344686619598" transform="matrix(0.7833633979760453,0.6215639844066129,-0.6215639844066129,0.7833633979760453,558.7262445782609,431.63251223061695)" fill="none" stroke="#ff5c58"></use><use xlink:href="#bbburst-shape-6" width="40.95798208118245" opacity="0.5034907290552979" transform="matrix(0.8758509276545536,-0.4825817573496308,0.4825817573496308,0.8758509276545536,-167.16528262372185,-35.03041584498055)" fill="#ffbd9b" filter="url(#bbburst-blur-1)"></use><use xlink:href="#bbburst-shape-6" width="37.753465161639255" opacity="0.49885200337190183" transform="matrix(0.9365836622001781,-0.3504440664352911,0.3504440664352911,0.9365836622001781,341.139833138703,385.59962270701124)" fill="#00a19d" filter="url(#bbburst-blur-1)"></use><use xlink:href="#bbburst-shape-4" width="7.075991957081428" opacity="0.9824771415300955" transform="matrix(0.9987963995817677,-0.0490484676875631,0.0490484676875631,0.9987963995817677,-15.096775954065784,385.1001970168362)" fill="#ffbd9b"></use><use xlink:href="#bbburst-shape-6" width="56.28653755972221" opacity="0.3192670403128609" transform="matrix(0.7844723142962493,0.6201638397251863,-0.6201638397251863,0.7844723142962493,698.8721296725489,-20.912682515958068)" fill="#ff5c58" filter="url(#bbburst-blur-2)"></use><use xlink:href="#bbburst-shape-8" width="67.84313421661875" opacity="0.175658170462196" transform="matrix(0.7557766326558744,0.6548295056969773,-0.6548295056969773,0.7557766326558744,824.6300893083544,-101.93227150256195)" fill="none" stroke="#00a19d" filter="url(#bbburst-blur-3)"></use><use xlink:href="#bbburst-shape-4" width="19.290225002085403" opacity="0.7939560127076439" transform="matrix(0.9965028727872325,-0.08355850960131386,0.08355850960131386,0.9965028727872325,160.8129400565177,372.2085802147425)" fill="#00a19d"></use><use xlink:href="#bbburst-shape-6" width="43.54650379318733" opacity="0.5950822958659704" transform="matrix(0.8938290306331135,-0.4484079214258693,0.4484079214258693,0.8938290306331135,202.80861848078496,400.76199202998606)" fill="#00a19d" filter="url(#bbburst-blur-1)"></use><use xlink:href="#bbburst-shape-8" width="44.79248397776605" opacity="0.40032288426135165" transform="matrix(0.9949360606967648,0.10050987575956673,-0.10050987575956673,0.9949360606967648,495.1406902185863,36.62976770938451)" fill="none" stroke="#2c2891" filter="url(#bbburst-blur-2)"></use><use xlink:href="#bbburst-shape-4" width="56.446734727284515" opacity="0.10702494653075878" transform="matrix(0.999956779424548,-0.009297272873581819,0.009297272873581819,0.999956779424548,482.38149969062476,-329.65344052150425)" fill="#00a19d" filter="url(#bbburst-blur-3)"></use><use xlink:href="#bbburst-shape-1" width="37.44434552557471" opacity="0.4213534556678583" transform="matrix(0.9895000911106788,-0.14453224447146176,0.14453224447146176,0.9895000911106788,441.2062450684533,148.136133213763)" fill="#ff5c58" filter="url(#bbburst-blur-2)"></use><use xlink:href="#bbburst-shape-4" width="19.752516316256973" opacity="0.8961787713741589" transform="matrix(0.7835419679356599,-0.6213388644560336,0.6213388644560336,0.7835419679356599,-171.67847171646338,432.53141304819326)" fill="#ff5c58"></use><use xlink:href="#bbburst-shape-6" width="37.07377628552838" opacity="0.5505534101157844" transform="matrix(0.9052102971152505,-0.42496390199229855,0.42496390199229855,0.9052102971152505,234.33030826195318,288.69243581024483)" fill="#ff5c58" filter="url(#bbburst-blur-1)"></use><use xlink:href="#bbburst-shape-6" width="25.534366269392432" opacity="0.8058490456701071" transform="matrix(0.9990324390080413,0.043979379368566836,-0.043979379368566836,0.9990324390080413,148.3802777907728,269.09751750265656)" fill="#00a19d"></use><use xlink:href="#bbburst-shape-4" width="55.70676738794384" opacity="0.11179247879234211" transform="matrix(0.9965734674358067,-0.08271229656449651,0.08271229656449651,0.9965734674358067,671.2867133162134,-99.17164285474166)" fill="#ffa6d5" filter="url(#bbburst-blur-3)"></use><use xlink:href="#bbburst-shape-6" width="55.8705452887003" opacity="0.33106665371453414" transform="matrix(0.9785337430517635,-0.2060866655295901,0.2060866655295901,0.9785337430517635,124.25945808822038,-212.31518125039352)" fill="#ffa6d5" filter="url(#bbburst-blur-2)"></use><use xlink:href="#bbburst-shape-10" width="12.458657727809484" opacity="0.9194467176064529" transform="matrix(0.8801577522880487,0.47468129422513583,-0.47468129422513583,0.8801577522880487,262.9288975891556,427.0794729360111)" fill="none" stroke="#2c2891"></use><use xlink:href="#bbburst-shape-6" width="30.589169028388994" opacity="0.6598165218889045" transform="matrix(0.9670865793377996,-0.25444753499437534,0.25444753499437534,0.9670865793377996,163.47894506071034,223.93225115982932)" fill="#00a19d"></use><use xlink:href="#bbburst-shape-4" width="75.75358746172822" opacity="-0.002843432949017455" transform="matrix(0.994319840717545,-0.10643333291519134,0.10643333291519134,0.994319840717545,630.5915706651107,-301.0395259355166)" fill="#ffa6d5" filter="url(#bbburst-blur-3)"></use></svg>