<svg xmlns="http://www.w3.org/2000/svg" version="1.1" xmlns:xlink="http://www.w3.org/1999/xlink" xmlns:svgjs="http://svgjs.dev/svgjs" viewBox="0 0 800 800" width="800" height="800"><g stroke-width="0.5" stroke="hsla(261, 72%, 30%, 0.42)" fill="none"><rect width="66.66666666666667" height="61.53846153846154" x="0" y="0" opacity="0.15"></rect><circle r="3.75" cx="0" cy="0" fill="hsla(261, 72%, 30%, 0.42)" stroke="none"></circle><rect width="66.66666666666667" height="61.53846153846154" x="66.66666666666667" y="0" opacity="0.15"></rect><circle r="3.75" cx="66.66666666666667" cy="0" fill="hsla(261, 72%, 30%, 0.42)" stroke="none"></circle><rect width="66.66666666666667" height="61.53846153846154" x="133.33333333333334" y="0" opacity="0.15"></rect><circle r="3.75" cx="133.33333333333334" cy="0" fill="hsla(261, 72%, 30%, 0.42)" stroke="none"></circle><rect width="66.66666666666667" height="61.53846153846154" x="200" y="0" opacity="0.15"></rect><circle r="3.75" cx="200" cy="0" fill="hsla(261, 72%, 30%, 0.42)" stroke="none"></circle><rect width="66.66666666666667" height="61.53846153846154" x="266.6666666666667" y="0" opacity="0.15"></rect><circle r="3.75" cx="266.6666666666667" cy="0" fill="hsla(261, 72%, 30%, 0.42)" stroke="none"></circle><rect width="66.66666666666667" height="61.53846153846154" x="333.33333333333337" y="0" opacity="0.15"></rect><circle r="3.75" cx="333.33333333333337" cy="0" fill="hsla(261, 72%, 30%, 0.42)" stroke="none"></circle><rect width="66.66666666666667" height="61.53846153846154" x="400.00000000000006" y="0" opacity="0.15"></rect><circle r="3.75" cx="400.00000000000006" cy="0" fill="hsla(261, 72%, 30%, 0.42)" stroke="none"></circle><rect width="66.66666666666667" height="61.53846153846154" x="466.66666666666674" y="0" opacity="0.15"></rect><circle r="3.75" cx="466.66666666666674" cy="0" fill="hsla(261, 72%, 30%, 0.42)" stroke="none"></circle><rect width="66.66666666666667" height="61.53846153846154" x="533.3333333333334" y="0" opacity="0.15"></rect><circle r="3.75" cx="533.3333333333334" cy="0" fill="hsla(261, 72%, 30%, 0.42)" stroke="none"></circle><rect width="66.66666666666667" height="61.53846153846154" x="600" y="0" opacity="0.15"></rect><circle r="3.75" cx="600" cy="0" fill="hsla(261, 72%, 30%, 0.42)" stroke="none"></circle><rect width="66.66666666666667" height="61.53846153846154" x="666.6666666666666" y="0" opacity="0.15"></rect><circle r="3.75" cx="666.6666666666666" cy="0" fill="hsla(261, 72%, 30%, 0.42)" stroke="none"></circle><rect width="66.66666666666667" height="61.53846153846154" x="733.3333333333333" y="0" opacity="0.15"></rect><circle r="3.75" cx="733.3333333333333" cy="0" fill="hsla(261, 72%, 30%, 0.42)" stroke="none"></circle><rect width="66.66666666666667" height="61.53846153846154" x="799.9999999999999" y="0" opacity="0.15"></rect><circle r="3.75" cx="799.9999999999999" cy="0" fill="hsla(261, 72%, 30%, 0.42)" stroke="none"></circle><rect width="66.66666666666667" height="61.53846153846154" x="0" y="61.53846153846154" opacity="0.15"></rect><circle r="3.75" cx="0" cy="61.53846153846154" fill="hsla(261, 72%, 30%, 0.42)" stroke="none"></circle><rect width="66.66666666666667" height="61.53846153846154" x="66.66666666666667" y="61.53846153846154" opacity="0.15"></rect><circle r="3.75" cx="66.66666666666667" cy="61.53846153846154" fill="hsla(261, 72%, 30%, 0.42)" stroke="none"></circle><rect width="66.66666666666667" height="61.53846153846154" x="133.33333333333334" y="61.53846153846154" opacity="0.15"></rect><circle r="3.75" cx="133.33333333333334" cy="61.53846153846154" fill="hsla(261, 72%, 30%, 0.42)" stroke="none"></circle><rect width="66.66666666666667" height="61.53846153846154" x="200" y="61.53846153846154" opacity="0.15"></rect><circle r="3.75" cx="200" cy="61.53846153846154" fill="hsla(261, 72%, 30%, 0.42)" stroke="none"></circle><rect width="66.66666666666667" height="61.53846153846154" x="266.6666666666667" y="61.53846153846154" opacity="0.15"></rect><circle r="3.75" cx="266.6666666666667" cy="61.53846153846154" fill="hsla(261, 72%, 30%, 0.42)" stroke="none"></circle><rect width="66.66666666666667" height="61.53846153846154" x="333.33333333333337" y="61.53846153846154" opacity="0.15"></rect><circle r="3.75" cx="333.33333333333337" cy="61.53846153846154" fill="hsla(261, 72%, 30%, 0.42)" stroke="none"></circle><rect width="66.66666666666667" height="61.53846153846154" x="400.00000000000006" y="61.53846153846154" opacity="0.15"></rect><circle r="3.75" cx="400.00000000000006" cy="61.53846153846154" fill="hsla(261, 72%, 30%, 0.42)" stroke="none"></circle><rect width="66.66666666666667" height="61.53846153846154" x="466.66666666666674" y="61.53846153846154" opacity="0.15"></rect><circle r="3.75" cx="466.66666666666674" cy="61.53846153846154" fill="hsla(261, 72%, 30%, 0.42)" stroke="none"></circle><rect width="66.66666666666667" height="61.53846153846154" x="533.3333333333334" y="61.53846153846154" opacity="0.15"></rect><circle r="3.75" cx="533.3333333333334" cy="61.53846153846154" fill="hsla(261, 72%, 30%, 0.42)" stroke="none"></circle><rect width="66.66666666666667" height="61.53846153846154" x="600" y="61.53846153846154" opacity="0.15"></rect><circle r="3.75" cx="600" cy="61.53846153846154" fill="hsla(261, 72%, 30%, 0.42)" stroke="none"></circle><rect width="66.66666666666667" height="61.53846153846154" x="666.6666666666666" y="61.53846153846154" opacity="0.15"></rect><circle r="3.75" cx="666.6666666666666" cy="61.53846153846154" fill="hsla(261, 72%, 30%, 0.42)" stroke="none"></circle><rect width="66.66666666666667" height="61.53846153846154" x="733.3333333333333" y="61.53846153846154" opacity="0.15"></rect><circle r="3.75" cx="733.3333333333333" cy="61.53846153846154" fill="hsla(261, 72%, 30%, 0.42)" stroke="none"></circle><rect width="66.66666666666667" height="61.53846153846154" x="799.9999999999999" y="61.53846153846154" opacity="0.15"></rect><circle r="3.75" cx="799.9999999999999" cy="61.53846153846154" fill="hsla(261, 72%, 30%, 0.42)" stroke="none"></circle><rect width="66.66666666666667" height="61.53846153846154" x="0" y="123.07692307692308" opacity="0.15"></rect><circle r="3.75" cx="0" cy="123.07692307692308" fill="hsla(261, 72%, 30%, 0.42)" stroke="none"></circle><rect width="66.66666666666667" height="61.53846153846154" x="66.66666666666667" y="123.07692307692308" opacity="0.15"></rect><circle r="3.75" cx="66.66666666666667" cy="123.07692307692308" fill="hsla(261, 72%, 30%, 0.42)" stroke="none"></circle><rect width="66.66666666666667" height="61.53846153846154" x="133.33333333333334" y="123.07692307692308" opacity="0.15"></rect><circle r="3.75" cx="133.33333333333334" cy="123.07692307692308" fill="hsla(261, 72%, 30%, 0.42)" stroke="none"></circle><rect width="66.66666666666667" height="61.53846153846154" x="200" y="123.07692307692308" opacity="0.15"></rect><circle r="3.75" cx="200" cy="123.07692307692308" fill="hsla(261, 72%, 30%, 0.42)" stroke="none"></circle><rect width="66.66666666666667" height="61.53846153846154" x="266.6666666666667" y="123.07692307692308" opacity="0.15"></rect><circle r="3.75" cx="266.6666666666667" cy="123.07692307692308" fill="hsla(261, 72%, 30%, 0.42)" stroke="none"></circle><rect width="66.66666666666667" height="61.53846153846154" x="333.33333333333337" y="123.07692307692308" opacity="0.15"></rect><circle r="3.75" cx="333.33333333333337" cy="123.07692307692308" fill="hsla(261, 72%, 30%, 0.42)" stroke="none"></circle><rect width="66.66666666666667" height="61.53846153846154" x="400.00000000000006" y="123.07692307692308" opacity="0.15"></rect><circle r="3.75" cx="400.00000000000006" cy="123.07692307692308" fill="hsla(261, 72%, 30%, 0.42)" stroke="none"></circle><rect width="66.66666666666667" height="61.53846153846154" x="466.66666666666674" y="123.07692307692308" opacity="0.15"></rect><circle r="3.75" cx="466.66666666666674" cy="123.07692307692308" fill="hsla(261, 72%, 30%, 0.42)" stroke="none"></circle><rect width="66.66666666666667" height="61.53846153846154" x="533.3333333333334" y="123.07692307692308" opacity="0.15"></rect><circle r="3.75" cx="533.3333333333334" cy="123.07692307692308" fill="hsla(261, 72%, 30%, 0.42)" stroke="none"></circle><rect width="66.66666666666667" height="61.53846153846154" x="600" y="123.07692307692308" opacity="0.15"></rect><circle r="3.75" cx="600" cy="123.07692307692308" fill="hsla(261, 72%, 30%, 0.42)" stroke="none"></circle><rect width="66.66666666666667" height="61.53846153846154" x="666.6666666666666" y="123.07692307692308" opacity="0.15"></rect><circle r="3.75" cx="666.6666666666666" cy="123.07692307692308" fill="hsla(261, 72%, 30%, 0.42)" stroke="none"></circle><rect width="66.66666666666667" height="61.53846153846154" x="733.3333333333333" y="123.07692307692308" opacity="0.15"></rect><circle r="3.75" cx="733.3333333333333" cy="123.07692307692308" fill="hsla(261, 72%, 30%, 0.42)" stroke="none"></circle><rect width="66.66666666666667" height="61.53846153846154" x="799.9999999999999" y="123.07692307692308" opacity="0.15"></rect><circle r="3.75" cx="799.9999999999999" cy="123.07692307692308" fill="hsla(261, 72%, 30%, 0.42)" stroke="none"></circle><rect width="66.66666666666667" height="61.53846153846154" x="0" y="184.6153846153846" opacity="0.15"></rect><circle r="3.75" cx="0" cy="184.6153846153846" fill="hsla(261, 72%, 30%, 0.42)" stroke="none"></circle><rect width="66.66666666666667" height="61.53846153846154" x="66.66666666666667" y="184.6153846153846" opacity="0.15"></rect><circle r="3.75" cx="66.66666666666667" cy="184.6153846153846" fill="hsla(261, 72%, 30%, 0.42)" stroke="none"></circle><rect width="66.66666666666667" height="61.53846153846154" x="133.33333333333334" y="184.6153846153846" opacity="0.15"></rect><circle r="3.75" cx="133.33333333333334" cy="184.6153846153846" fill="hsla(261, 72%, 30%, 0.42)" stroke="none"></circle><rect width="66.66666666666667" height="61.53846153846154" x="200" y="184.6153846153846" opacity="0.15"></rect><circle r="3.75" cx="200" cy="184.6153846153846" fill="hsla(261, 72%, 30%, 0.42)" stroke="none"></circle><rect width="66.66666666666667" height="61.53846153846154" x="266.6666666666667" y="184.6153846153846" opacity="0.15"></rect><circle r="3.75" cx="266.6666666666667" cy="184.6153846153846" fill="hsla(261, 72%, 30%, 0.42)" stroke="none"></circle><rect width="66.66666666666667" height="61.53846153846154" x="333.33333333333337" y="184.6153846153846" opacity="0.15"></rect><circle r="3.75" cx="333.33333333333337" cy="184.6153846153846" fill="hsla(261, 72%, 30%, 0.42)" stroke="none"></circle><rect width="66.66666666666667" height="61.53846153846154" x="400.00000000000006" y="184.6153846153846" opacity="0.15"></rect><circle r="3.75" cx="400.00000000000006" cy="184.6153846153846" fill="hsla(261, 72%, 30%, 0.42)" stroke="none"></circle><rect width="66.66666666666667" height="61.53846153846154" x="466.66666666666674" y="184.6153846153846" opacity="0.15"></rect><circle r="3.75" cx="466.66666666666674" cy="184.6153846153846" fill="hsla(261, 72%, 30%, 0.42)" stroke="none"></circle><rect width="66.66666666666667" height="61.53846153846154" x="533.3333333333334" y="184.6153846153846" opacity="0.15"></rect><circle r="3.75" cx="533.3333333333334" cy="184.6153846153846" fill="hsla(261, 72%, 30%, 0.42)" stroke="none"></circle><rect width="66.66666666666667" height="61.53846153846154" x="600" y="184.6153846153846" opacity="0.15"></rect><circle r="3.75" cx="600" cy="184.6153846153846" fill="hsla(261, 72%, 30%, 0.42)" stroke="none"></circle><rect width="66.66666666666667" height="61.53846153846154" x="666.6666666666666" y="184.6153846153846" opacity="0.15"></rect><circle r="3.75" cx="666.6666666666666" cy="184.6153846153846" fill="hsla(261, 72%, 30%, 0.42)" stroke="none"></circle><rect width="66.66666666666667" height="61.53846153846154" x="733.3333333333333" y="184.6153846153846" opacity="0.15"></rect><circle r="3.75" cx="733.3333333333333" cy="184.6153846153846" fill="hsla(261, 72%, 30%, 0.42)" stroke="none"></circle><rect width="66.66666666666667" height="61.53846153846154" x="799.9999999999999" y="184.6153846153846" opacity="0.15"></rect><circle r="3.75" cx="799.9999999999999" cy="184.6153846153846" fill="hsla(261, 72%, 30%, 0.42)" stroke="none"></circle><rect width="66.66666666666667" height="61.53846153846154" x="0" y="246.15384615384616" opacity="0.15"></rect><circle r="3.75" cx="0" cy="246.15384615384616" fill="hsla(261, 72%, 30%, 0.42)" stroke="none"></circle><rect width="66.66666666666667" height="61.53846153846154" x="66.66666666666667" y="246.15384615384616" opacity="0.15"></rect><circle r="3.75" cx="66.66666666666667" cy="246.15384615384616" fill="hsla(261, 72%, 30%, 0.42)" stroke="none"></circle><rect width="66.66666666666667" height="61.53846153846154" x="133.33333333333334" y="246.15384615384616" opacity="0.15"></rect><circle r="3.75" cx="133.33333333333334" cy="246.15384615384616" fill="hsla(261, 72%, 30%, 0.42)" stroke="none"></circle><rect width="66.66666666666667" height="61.53846153846154" x="200" y="246.15384615384616" opacity="0.15"></rect><circle r="3.75" cx="200" cy="246.15384615384616" fill="hsla(261, 72%, 30%, 0.42)" stroke="none"></circle><rect width="66.66666666666667" height="61.53846153846154" x="266.6666666666667" y="246.15384615384616" opacity="0.15"></rect><circle r="3.75" cx="266.6666666666667" cy="246.15384615384616" fill="hsla(261, 72%, 30%, 0.42)" stroke="none"></circle><rect width="66.66666666666667" height="61.53846153846154" x="333.33333333333337" y="246.15384615384616" opacity="0.15"></rect><circle r="3.75" cx="333.33333333333337" cy="246.15384615384616" fill="hsla(261, 72%, 30%, 0.42)" stroke="none"></circle><rect width="66.66666666666667" height="61.53846153846154" x="400.00000000000006" y="246.15384615384616" opacity="0.15"></rect><circle r="3.75" cx="400.00000000000006" cy="246.15384615384616" fill="hsla(261, 72%, 30%, 0.42)" stroke="none"></circle><rect width="66.66666666666667" height="61.53846153846154" x="466.66666666666674" y="246.15384615384616" opacity="0.15"></rect><circle r="3.75" cx="466.66666666666674" cy="246.15384615384616" fill="hsla(261, 72%, 30%, 0.42)" stroke="none"></circle><rect width="66.66666666666667" height="61.53846153846154" x="533.3333333333334" y="246.15384615384616" opacity="0.15"></rect><circle r="3.75" cx="533.3333333333334" cy="246.15384615384616" fill="hsla(261, 72%, 30%, 0.42)" stroke="none"></circle><rect width="66.66666666666667" height="61.53846153846154" x="600" y="246.15384615384616" opacity="0.15"></rect><circle r="3.75" cx="600" cy="246.15384615384616" fill="hsla(261, 72%, 30%, 0.42)" stroke="none"></circle><rect width="66.66666666666667" height="61.53846153846154" x="666.6666666666666" y="246.15384615384616" opacity="0.15"></rect><circle r="3.75" cx="666.6666666666666" cy="246.15384615384616" fill="hsla(261, 72%, 30%, 0.42)" stroke="none"></circle><rect width="66.66666666666667" height="61.53846153846154" x="733.3333333333333" y="246.15384615384616" opacity="0.15"></rect><circle r="3.75" cx="733.3333333333333" cy="246.15384615384616" fill="hsla(261, 72%, 30%, 0.42)" stroke="none"></circle><rect width="66.66666666666667" height="61.53846153846154" x="799.9999999999999" y="246.15384615384616" opacity="0.15"></rect><circle r="3.75" cx="799.9999999999999" cy="246.15384615384616" fill="hsla(261, 72%, 30%, 0.42)" stroke="none"></circle><rect width="66.66666666666667" height="61.53846153846154" x="0" y="307.6923076923077" opacity="0.15"></rect><circle r="3.75" cx="0" cy="307.6923076923077" fill="hsla(261, 72%, 30%, 0.42)" stroke="none"></circle><rect width="66.66666666666667" height="61.53846153846154" x="66.66666666666667" y="307.6923076923077" opacity="0.15"></rect><circle r="3.75" cx="66.66666666666667" cy="307.6923076923077" fill="hsla(261, 72%, 30%, 0.42)" stroke="none"></circle><rect width="66.66666666666667" height="61.53846153846154" x="133.33333333333334" y="307.6923076923077" opacity="0.15"></rect><circle r="3.75" cx="133.33333333333334" cy="307.6923076923077" fill="hsla(261, 72%, 30%, 0.42)" stroke="none"></circle><rect width="66.66666666666667" height="61.53846153846154" x="200" y="307.6923076923077" opacity="0.15"></rect><circle r="3.75" cx="200" cy="307.6923076923077" fill="hsla(261, 72%, 30%, 0.42)" stroke="none"></circle><rect width="66.66666666666667" height="61.53846153846154" x="266.6666666666667" y="307.6923076923077" opacity="0.15"></rect><circle r="3.75" cx="266.6666666666667" cy="307.6923076923077" fill="hsla(261, 72%, 30%, 0.42)" stroke="none"></circle><rect width="66.66666666666667" height="61.53846153846154" x="333.33333333333337" y="307.6923076923077" opacity="0.15"></rect><circle r="3.75" cx="333.33333333333337" cy="307.6923076923077" fill="hsla(261, 72%, 30%, 0.42)" stroke="none"></circle><rect width="66.66666666666667" height="61.53846153846154" x="400.00000000000006" y="307.6923076923077" opacity="0.15"></rect><circle r="3.75" cx="400.00000000000006" cy="307.6923076923077" fill="hsla(261, 72%, 30%, 0.42)" stroke="none"></circle><rect width="66.66666666666667" height="61.53846153846154" x="466.66666666666674" y="307.6923076923077" opacity="0.15"></rect><circle r="3.75" cx="466.66666666666674" cy="307.6923076923077" fill="hsla(261, 72%, 30%, 0.42)" stroke="none"></circle><rect width="66.66666666666667" height="61.53846153846154" x="533.3333333333334" y="307.6923076923077" opacity="0.15"></rect><circle r="3.75" cx="533.3333333333334" cy="307.6923076923077" fill="hsla(261, 72%, 30%, 0.42)" stroke="none"></circle><rect width="66.66666666666667" height="61.53846153846154" x="600" y="307.6923076923077" opacity="0.15"></rect><circle r="3.75" cx="600" cy="307.6923076923077" fill="hsla(261, 72%, 30%, 0.42)" stroke="none"></circle><rect width="66.66666666666667" height="61.53846153846154" x="666.6666666666666" y="307.6923076923077" opacity="0.15"></rect><circle r="3.75" cx="666.6666666666666" cy="307.6923076923077" fill="hsla(261, 72%, 30%, 0.42)" stroke="none"></circle><rect width="66.66666666666667" height="61.53846153846154" x="733.3333333333333" y="307.6923076923077" opacity="0.15"></rect><circle r="3.75" cx="733.3333333333333" cy="307.6923076923077" fill="hsla(261, 72%, 30%, 0.42)" stroke="none"></circle><rect width="66.66666666666667" height="61.53846153846154" x="799.9999999999999" y="307.6923076923077" opacity="0.15"></rect><circle r="3.75" cx="799.9999999999999" cy="307.6923076923077" fill="hsla(261, 72%, 30%, 0.42)" stroke="none"></circle><rect width="66.66666666666667" height="61.53846153846154" x="0" y="369.2307692307692" opacity="0.15"></rect><circle r="3.75" cx="0" cy="369.2307692307692" fill="hsla(261, 72%, 30%, 0.42)" stroke="none"></circle><rect width="66.66666666666667" height="61.53846153846154" x="66.66666666666667" y="369.2307692307692" opacity="0.15"></rect><circle r="3.75" cx="66.66666666666667" cy="369.2307692307692" fill="hsla(261, 72%, 30%, 0.42)" stroke="none"></circle><rect width="66.66666666666667" height="61.53846153846154" x="133.33333333333334" y="369.2307692307692" opacity="0.15"></rect><circle r="3.75" cx="133.33333333333334" cy="369.2307692307692" fill="hsla(261, 72%, 30%, 0.42)" stroke="none"></circle><rect width="66.66666666666667" height="61.53846153846154" x="200" y="369.2307692307692" opacity="0.15"></rect><circle r="3.75" cx="200" cy="369.2307692307692" fill="hsla(261, 72%, 30%, 0.42)" stroke="none"></circle><rect width="66.66666666666667" height="61.53846153846154" x="266.6666666666667" y="369.2307692307692" opacity="0.15"></rect><circle r="3.75" cx="266.6666666666667" cy="369.2307692307692" fill="hsla(261, 72%, 30%, 0.42)" stroke="none"></circle><rect width="66.66666666666667" height="61.53846153846154" x="333.33333333333337" y="369.2307692307692" opacity="0.15"></rect><circle r="3.75" cx="333.33333333333337" cy="369.2307692307692" fill="hsla(261, 72%, 30%, 0.42)" stroke="none"></circle><rect width="66.66666666666667" height="61.53846153846154" x="400.00000000000006" y="369.2307692307692" opacity="0.15"></rect><circle r="3.75" cx="400.00000000000006" cy="369.2307692307692" fill="hsla(261, 72%, 30%, 0.42)" stroke="none"></circle><rect width="66.66666666666667" height="61.53846153846154" x="466.66666666666674" y="369.2307692307692" opacity="0.15"></rect><circle r="3.75" cx="466.66666666666674" cy="369.2307692307692" fill="hsla(261, 72%, 30%, 0.42)" stroke="none"></circle><rect width="66.66666666666667" height="61.53846153846154" x="533.3333333333334" y="369.2307692307692" opacity="0.15"></rect><circle r="3.75" cx="533.3333333333334" cy="369.2307692307692" fill="hsla(261, 72%, 30%, 0.42)" stroke="none"></circle><rect width="66.66666666666667" height="61.53846153846154" x="600" y="369.2307692307692" opacity="0.15"></rect><circle r="3.75" cx="600" cy="369.2307692307692" fill="hsla(261, 72%, 30%, 0.42)" stroke="none"></circle><rect width="66.66666666666667" height="61.53846153846154" x="666.6666666666666" y="369.2307692307692" opacity="0.15"></rect><circle r="3.75" cx="666.6666666666666" cy="369.2307692307692" fill="hsla(261, 72%, 30%, 0.42)" stroke="none"></circle><rect width="66.66666666666667" height="61.53846153846154" x="733.3333333333333" y="369.2307692307692" opacity="0.15"></rect><circle r="3.75" cx="733.3333333333333" cy="369.2307692307692" fill="hsla(261, 72%, 30%, 0.42)" stroke="none"></circle><rect width="66.66666666666667" height="61.53846153846154" x="799.9999999999999" y="369.2307692307692" opacity="0.15"></rect><circle r="3.75" cx="799.9999999999999" cy="369.2307692307692" fill="hsla(261, 72%, 30%, 0.42)" stroke="none"></circle><rect width="66.66666666666667" height="61.53846153846154" x="0" y="430.7692307692308" opacity="0.15"></rect><circle r="3.75" cx="0" cy="430.7692307692308" fill="hsla(261, 72%, 30%, 0.42)" stroke="none"></circle><rect width="66.66666666666667" height="61.53846153846154" x="66.66666666666667" y="430.7692307692308" opacity="0.15"></rect><circle r="3.75" cx="66.66666666666667" cy="430.7692307692308" fill="hsla(261, 72%, 30%, 0.42)" stroke="none"></circle><rect width="66.66666666666667" height="61.53846153846154" x="133.33333333333334" y="430.7692307692308" opacity="0.15"></rect><circle r="3.75" cx="133.33333333333334" cy="430.7692307692308" fill="hsla(261, 72%, 30%, 0.42)" stroke="none"></circle><rect width="66.66666666666667" height="61.53846153846154" x="200" y="430.7692307692308" opacity="0.15"></rect><circle r="3.75" cx="200" cy="430.7692307692308" fill="hsla(261, 72%, 30%, 0.42)" stroke="none"></circle><rect width="66.66666666666667" height="61.53846153846154" x="266.6666666666667" y="430.7692307692308" opacity="0.15"></rect><circle r="3.75" cx="266.6666666666667" cy="430.7692307692308" fill="hsla(261, 72%, 30%, 0.42)" stroke="none"></circle><rect width="66.66666666666667" height="61.53846153846154" x="333.33333333333337" y="430.7692307692308" opacity="0.15"></rect><circle r="3.75" cx="333.33333333333337" cy="430.7692307692308" fill="hsla(261, 72%, 30%, 0.42)" stroke="none"></circle><rect width="66.66666666666667" height="61.53846153846154" x="400.00000000000006" y="430.7692307692308" opacity="0.15"></rect><circle r="3.75" cx="400.00000000000006" cy="430.7692307692308" fill="hsla(261, 72%, 30%, 0.42)" stroke="none"></circle><rect width="66.66666666666667" height="61.53846153846154" x="466.66666666666674" y="430.7692307692308" opacity="0.15"></rect><circle r="3.75" cx="466.66666666666674" cy="430.7692307692308" fill="hsla(261, 72%, 30%, 0.42)" stroke="none"></circle><rect width="66.66666666666667" height="61.53846153846154" x="533.3333333333334" y="430.7692307692308" opacity="0.15"></rect><circle r="3.75" cx="533.3333333333334" cy="430.7692307692308" fill="hsla(261, 72%, 30%, 0.42)" stroke="none"></circle><rect width="66.66666666666667" height="61.53846153846154" x="600" y="430.7692307692308" opacity="0.15"></rect><circle r="3.75" cx="600" cy="430.7692307692308" fill="hsla(261, 72%, 30%, 0.42)" stroke="none"></circle><rect width="66.66666666666667" height="61.53846153846154" x="666.6666666666666" y="430.7692307692308" opacity="0.15"></rect><circle r="3.75" cx="666.6666666666666" cy="430.7692307692308" fill="hsla(261, 72%, 30%, 0.42)" stroke="none"></circle><rect width="66.66666666666667" height="61.53846153846154" x="733.3333333333333" y="430.7692307692308" opacity="0.15"></rect><circle r="3.75" cx="733.3333333333333" cy="430.7692307692308" fill="hsla(261, 72%, 30%, 0.42)" stroke="none"></circle><rect width="66.66666666666667" height="61.53846153846154" x="799.9999999999999" y="430.7692307692308" opacity="0.15"></rect><circle r="3.75" cx="799.9999999999999" cy="430.7692307692308" fill="hsla(261, 72%, 30%, 0.42)" stroke="none"></circle><rect width="66.66666666666667" height="61.53846153846154" x="0" y="492.3076923076923" opacity="0.15"></rect><circle r="3.75" cx="0" cy="492.3076923076923" fill="hsla(261, 72%, 30%, 0.42)" stroke="none"></circle><rect width="66.66666666666667" height="61.53846153846154" x="66.66666666666667" y="492.3076923076923" opacity="0.15"></rect><circle r="3.75" cx="66.66666666666667" cy="492.3076923076923" fill="hsla(261, 72%, 30%, 0.42)" stroke="none"></circle><rect width="66.66666666666667" height="61.53846153846154" x="133.33333333333334" y="492.3076923076923" opacity="0.15"></rect><circle r="3.75" cx="133.33333333333334" cy="492.3076923076923" fill="hsla(261, 72%, 30%, 0.42)" stroke="none"></circle><rect width="66.66666666666667" height="61.53846153846154" x="200" y="492.3076923076923" opacity="0.15"></rect><circle r="3.75" cx="200" cy="492.3076923076923" fill="hsla(261, 72%, 30%, 0.42)" stroke="none"></circle><rect width="66.66666666666667" height="61.53846153846154" x="266.6666666666667" y="492.3076923076923" opacity="0.15"></rect><circle r="3.75" cx="266.6666666666667" cy="492.3076923076923" fill="hsla(261, 72%, 30%, 0.42)" stroke="none"></circle><rect width="66.66666666666667" height="61.53846153846154" x="333.33333333333337" y="492.3076923076923" opacity="0.15"></rect><circle r="3.75" cx="333.33333333333337" cy="492.3076923076923" fill="hsla(261, 72%, 30%, 0.42)" stroke="none"></circle><rect width="66.66666666666667" height="61.53846153846154" x="400.00000000000006" y="492.3076923076923" opacity="0.15"></rect><circle r="3.75" cx="400.00000000000006" cy="492.3076923076923" fill="hsla(261, 72%, 30%, 0.42)" stroke="none"></circle><rect width="66.66666666666667" height="61.53846153846154" x="466.66666666666674" y="492.3076923076923" opacity="0.15"></rect><circle r="3.75" cx="466.66666666666674" cy="492.3076923076923" fill="hsla(261, 72%, 30%, 0.42)" stroke="none"></circle><rect width="66.66666666666667" height="61.53846153846154" x="533.3333333333334" y="492.3076923076923" opacity="0.15"></rect><circle r="3.75" cx="533.3333333333334" cy="492.3076923076923" fill="hsla(261, 72%, 30%, 0.42)" stroke="none"></circle><rect width="66.66666666666667" height="61.53846153846154" x="600" y="492.3076923076923" opacity="0.15"></rect><circle r="3.75" cx="600" cy="492.3076923076923" fill="hsla(261, 72%, 30%, 0.42)" stroke="none"></circle><rect width="66.66666666666667" height="61.53846153846154" x="666.6666666666666" y="492.3076923076923" opacity="0.15"></rect><circle r="3.75" cx="666.6666666666666" cy="492.3076923076923" fill="hsla(261, 72%, 30%, 0.42)" stroke="none"></circle><rect width="66.66666666666667" height="61.53846153846154" x="733.3333333333333" y="492.3076923076923" opacity="0.15"></rect><circle r="3.75" cx="733.3333333333333" cy="492.3076923076923" fill="hsla(261, 72%, 30%, 0.42)" stroke="none"></circle><rect width="66.66666666666667" height="61.53846153846154" x="799.9999999999999" y="492.3076923076923" opacity="0.15"></rect><circle r="3.75" cx="799.9999999999999" cy="492.3076923076923" fill="hsla(261, 72%, 30%, 0.42)" stroke="none"></circle><rect width="66.66666666666667" height="61.53846153846154" x="0" y="553.8461538461538" opacity="0.15"></rect><circle r="3.75" cx="0" cy="553.8461538461538" fill="hsla(261, 72%, 30%, 0.42)" stroke="none"></circle><rect width="66.66666666666667" height="61.53846153846154" x="66.66666666666667" y="553.8461538461538" opacity="0.15"></rect><circle r="3.75" cx="66.66666666666667" cy="553.8461538461538" fill="hsla(261, 72%, 30%, 0.42)" stroke="none"></circle><rect width="66.66666666666667" height="61.53846153846154" x="133.33333333333334" y="553.8461538461538" opacity="0.15"></rect><circle r="3.75" cx="133.33333333333334" cy="553.8461538461538" fill="hsla(261, 72%, 30%, 0.42)" stroke="none"></circle><rect width="66.66666666666667" height="61.53846153846154" x="200" y="553.8461538461538" opacity="0.15"></rect><circle r="3.75" cx="200" cy="553.8461538461538" fill="hsla(261, 72%, 30%, 0.42)" stroke="none"></circle><rect width="66.66666666666667" height="61.53846153846154" x="266.6666666666667" y="553.8461538461538" opacity="0.15"></rect><circle r="3.75" cx="266.6666666666667" cy="553.8461538461538" fill="hsla(261, 72%, 30%, 0.42)" stroke="none"></circle><rect width="66.66666666666667" height="61.53846153846154" x="333.33333333333337" y="553.8461538461538" opacity="0.15"></rect><circle r="3.75" cx="333.33333333333337" cy="553.8461538461538" fill="hsla(261, 72%, 30%, 0.42)" stroke="none"></circle><rect width="66.66666666666667" height="61.53846153846154" x="400.00000000000006" y="553.8461538461538" opacity="0.15"></rect><circle r="3.75" cx="400.00000000000006" cy="553.8461538461538" fill="hsla(261, 72%, 30%, 0.42)" stroke="none"></circle><rect width="66.66666666666667" height="61.53846153846154" x="466.66666666666674" y="553.8461538461538" opacity="0.15"></rect><circle r="3.75" cx="466.66666666666674" cy="553.8461538461538" fill="hsla(261, 72%, 30%, 0.42)" stroke="none"></circle><rect width="66.66666666666667" height="61.53846153846154" x="533.3333333333334" y="553.8461538461538" opacity="0.15"></rect><circle r="3.75" cx="533.3333333333334" cy="553.8461538461538" fill="hsla(261, 72%, 30%, 0.42)" stroke="none"></circle><rect width="66.66666666666667" height="61.53846153846154" x="600" y="553.8461538461538" opacity="0.15"></rect><circle r="3.75" cx="600" cy="553.8461538461538" fill="hsla(261, 72%, 30%, 0.42)" stroke="none"></circle><rect width="66.66666666666667" height="61.53846153846154" x="666.6666666666666" y="553.8461538461538" opacity="0.15"></rect><circle r="3.75" cx="666.6666666666666" cy="553.8461538461538" fill="hsla(261, 72%, 30%, 0.42)" stroke="none"></circle><rect width="66.66666666666667" height="61.53846153846154" x="733.3333333333333" y="553.8461538461538" opacity="0.15"></rect><circle r="3.75" cx="733.3333333333333" cy="553.8461538461538" fill="hsla(261, 72%, 30%, 0.42)" stroke="none"></circle><rect width="66.66666666666667" height="61.53846153846154" x="799.9999999999999" y="553.8461538461538" opacity="0.15"></rect><circle r="3.75" cx="799.9999999999999" cy="553.8461538461538" fill="hsla(261, 72%, 30%, 0.42)" stroke="none"></circle><rect width="66.66666666666667" height="61.53846153846154" x="0" y="615.3846153846154" opacity="0.15"></rect><circle r="3.75" cx="0" cy="615.3846153846154" fill="hsla(261, 72%, 30%, 0.42)" stroke="none"></circle><rect width="66.66666666666667" height="61.53846153846154" x="66.66666666666667" y="615.3846153846154" opacity="0.15"></rect><circle r="3.75" cx="66.66666666666667" cy="615.3846153846154" fill="hsla(261, 72%, 30%, 0.42)" stroke="none"></circle><rect width="66.66666666666667" height="61.53846153846154" x="133.33333333333334" y="615.3846153846154" opacity="0.15"></rect><circle r="3.75" cx="133.33333333333334" cy="615.3846153846154" fill="hsla(261, 72%, 30%, 0.42)" stroke="none"></circle><rect width="66.66666666666667" height="61.53846153846154" x="200" y="615.3846153846154" opacity="0.15"></rect><circle r="3.75" cx="200" cy="615.3846153846154" fill="hsla(261, 72%, 30%, 0.42)" stroke="none"></circle><rect width="66.66666666666667" height="61.53846153846154" x="266.6666666666667" y="615.3846153846154" opacity="0.15"></rect><circle r="3.75" cx="266.6666666666667" cy="615.3846153846154" fill="hsla(261, 72%, 30%, 0.42)" stroke="none"></circle><rect width="66.66666666666667" height="61.53846153846154" x="333.33333333333337" y="615.3846153846154" opacity="0.15"></rect><circle r="3.75" cx="333.33333333333337" cy="615.3846153846154" fill="hsla(261, 72%, 30%, 0.42)" stroke="none"></circle><rect width="66.66666666666667" height="61.53846153846154" x="400.00000000000006" y="615.3846153846154" opacity="0.15"></rect><circle r="3.75" cx="400.00000000000006" cy="615.3846153846154" fill="hsla(261, 72%, 30%, 0.42)" stroke="none"></circle><rect width="66.66666666666667" height="61.53846153846154" x="466.66666666666674" y="615.3846153846154" opacity="0.15"></rect><circle r="3.75" cx="466.66666666666674" cy="615.3846153846154" fill="hsla(261, 72%, 30%, 0.42)" stroke="none"></circle><rect width="66.66666666666667" height="61.53846153846154" x="533.3333333333334" y="615.3846153846154" opacity="0.15"></rect><circle r="3.75" cx="533.3333333333334" cy="615.3846153846154" fill="hsla(261, 72%, 30%, 0.42)" stroke="none"></circle><rect width="66.66666666666667" height="61.53846153846154" x="600" y="615.3846153846154" opacity="0.15"></rect><circle r="3.75" cx="600" cy="615.3846153846154" fill="hsla(261, 72%, 30%, 0.42)" stroke="none"></circle><rect width="66.66666666666667" height="61.53846153846154" x="666.6666666666666" y="615.3846153846154" opacity="0.15"></rect><circle r="3.75" cx="666.6666666666666" cy="615.3846153846154" fill="hsla(261, 72%, 30%, 0.42)" stroke="none"></circle><rect width="66.66666666666667" height="61.53846153846154" x="733.3333333333333" y="615.3846153846154" opacity="0.15"></rect><circle r="3.75" cx="733.3333333333333" cy="615.3846153846154" fill="hsla(261, 72%, 30%, 0.42)" stroke="none"></circle><rect width="66.66666666666667" height="61.53846153846154" x="799.9999999999999" y="615.3846153846154" opacity="0.15"></rect><circle r="3.75" cx="799.9999999999999" cy="615.3846153846154" fill="hsla(261, 72%, 30%, 0.42)" stroke="none"></circle><rect width="66.66666666666667" height="61.53846153846154" x="0" y="676.9230769230769" opacity="0.15"></rect><circle r="3.75" cx="0" cy="676.9230769230769" fill="hsla(261, 72%, 30%, 0.42)" stroke="none"></circle><rect width="66.66666666666667" height="61.53846153846154" x="66.66666666666667" y="676.9230769230769" opacity="0.15"></rect><circle r="3.75" cx="66.66666666666667" cy="676.9230769230769" fill="hsla(261, 72%, 30%, 0.42)" stroke="none"></circle><rect width="66.66666666666667" height="61.53846153846154" x="133.33333333333334" y="676.9230769230769" opacity="0.15"></rect><circle r="3.75" cx="133.33333333333334" cy="676.9230769230769" fill="hsla(261, 72%, 30%, 0.42)" stroke="none"></circle><rect width="66.66666666666667" height="61.53846153846154" x="200" y="676.9230769230769" opacity="0.15"></rect><circle r="3.75" cx="200" cy="676.9230769230769" fill="hsla(261, 72%, 30%, 0.42)" stroke="none"></circle><rect width="66.66666666666667" height="61.53846153846154" x="266.6666666666667" y="676.9230769230769" opacity="0.15"></rect><circle r="3.75" cx="266.6666666666667" cy="676.9230769230769" fill="hsla(261, 72%, 30%, 0.42)" stroke="none"></circle><rect width="66.66666666666667" height="61.53846153846154" x="333.33333333333337" y="676.9230769230769" opacity="0.15"></rect><circle r="3.75" cx="333.33333333333337" cy="676.9230769230769" fill="hsla(261, 72%, 30%, 0.42)" stroke="none"></circle><rect width="66.66666666666667" height="61.53846153846154" x="400.00000000000006" y="676.9230769230769" opacity="0.15"></rect><circle r="3.75" cx="400.00000000000006" cy="676.9230769230769" fill="hsla(261, 72%, 30%, 0.42)" stroke="none"></circle><rect width="66.66666666666667" height="61.53846153846154" x="466.66666666666674" y="676.9230769230769" opacity="0.15"></rect><circle r="3.75" cx="466.66666666666674" cy="676.9230769230769" fill="hsla(261, 72%, 30%, 0.42)" stroke="none"></circle><rect width="66.66666666666667" height="61.53846153846154" x="533.3333333333334" y="676.9230769230769" opacity="0.15"></rect><circle r="3.75" cx="533.3333333333334" cy="676.9230769230769" fill="hsla(261, 72%, 30%, 0.42)" stroke="none"></circle><rect width="66.66666666666667" height="61.53846153846154" x="600" y="676.9230769230769" opacity="0.15"></rect><circle r="3.75" cx="600" cy="676.9230769230769" fill="hsla(261, 72%, 30%, 0.42)" stroke="none"></circle><rect width="66.66666666666667" height="61.53846153846154" x="666.6666666666666" y="676.9230769230769" opacity="0.15"></rect><circle r="3.75" cx="666.6666666666666" cy="676.9230769230769" fill="hsla(261, 72%, 30%, 0.42)" stroke="none"></circle><rect width="66.66666666666667" height="61.53846153846154" x="733.3333333333333" y="676.9230769230769" opacity="0.15"></rect><circle r="3.75" cx="733.3333333333333" cy="676.9230769230769" fill="hsla(261, 72%, 30%, 0.42)" stroke="none"></circle><rect width="66.66666666666667" height="61.53846153846154" x="799.9999999999999" y="676.9230769230769" opacity="0.15"></rect><circle r="3.75" cx="799.9999999999999" cy="676.9230769230769" fill="hsla(261, 72%, 30%, 0.42)" stroke="none"></circle><rect width="66.66666666666667" height="61.53846153846154" x="0" y="738.4615384615385" opacity="0.15"></rect><circle r="3.75" cx="0" cy="738.4615384615385" fill="hsla(261, 72%, 30%, 0.42)" stroke="none"></circle><rect width="66.66666666666667" height="61.53846153846154" x="66.66666666666667" y="738.4615384615385" opacity="0.15"></rect><circle r="3.75" cx="66.66666666666667" cy="738.4615384615385" fill="hsla(261, 72%, 30%, 0.42)" stroke="none"></circle><rect width="66.66666666666667" height="61.53846153846154" x="133.33333333333334" y="738.4615384615385" opacity="0.15"></rect><circle r="3.75" cx="133.33333333333334" cy="738.4615384615385" fill="hsla(261, 72%, 30%, 0.42)" stroke="none"></circle><rect width="66.66666666666667" height="61.53846153846154" x="200" y="738.4615384615385" opacity="0.15"></rect><circle r="3.75" cx="200" cy="738.4615384615385" fill="hsla(261, 72%, 30%, 0.42)" stroke="none"></circle><rect width="66.66666666666667" height="61.53846153846154" x="266.6666666666667" y="738.4615384615385" opacity="0.15"></rect><circle r="3.75" cx="266.6666666666667" cy="738.4615384615385" fill="hsla(261, 72%, 30%, 0.42)" stroke="none"></circle><rect width="66.66666666666667" height="61.53846153846154" x="333.33333333333337" y="738.4615384615385" opacity="0.15"></rect><circle r="3.75" cx="333.33333333333337" cy="738.4615384615385" fill="hsla(261, 72%, 30%, 0.42)" stroke="none"></circle><rect width="66.66666666666667" height="61.53846153846154" x="400.00000000000006" y="738.4615384615385" opacity="0.15"></rect><circle r="3.75" cx="400.00000000000006" cy="738.4615384615385" fill="hsla(261, 72%, 30%, 0.42)" stroke="none"></circle><rect width="66.66666666666667" height="61.53846153846154" x="466.66666666666674" y="738.4615384615385" opacity="0.15"></rect><circle r="3.75" cx="466.66666666666674" cy="738.4615384615385" fill="hsla(261, 72%, 30%, 0.42)" stroke="none"></circle><rect width="66.66666666666667" height="61.53846153846154" x="533.3333333333334" y="738.4615384615385" opacity="0.15"></rect><circle r="3.75" cx="533.3333333333334" cy="738.4615384615385" fill="hsla(261, 72%, 30%, 0.42)" stroke="none"></circle><rect width="66.66666666666667" height="61.53846153846154" x="600" y="738.4615384615385" opacity="0.15"></rect><circle r="3.75" cx="600" cy="738.4615384615385" fill="hsla(261, 72%, 30%, 0.42)" stroke="none"></circle><rect width="66.66666666666667" height="61.53846153846154" x="666.6666666666666" y="738.4615384615385" opacity="0.15"></rect><circle r="3.75" cx="666.6666666666666" cy="738.4615384615385" fill="hsla(261, 72%, 30%, 0.42)" stroke="none"></circle><rect width="66.66666666666667" height="61.53846153846154" x="733.3333333333333" y="738.4615384615385" opacity="0.15"></rect><circle r="3.75" cx="733.3333333333333" cy="738.4615384615385" fill="hsla(261, 72%, 30%, 0.42)" stroke="none"></circle><rect width="66.66666666666667" height="61.53846153846154" x="799.9999999999999" y="738.4615384615385" opacity="0.15"></rect><circle r="3.75" cx="799.9999999999999" cy="738.4615384615385" fill="hsla(261, 72%, 30%, 0.42)" stroke="none"></circle><rect width="66.66666666666667" height="61.53846153846154" x="0" y="800" opacity="0.15"></rect><circle r="3.75" cx="0" cy="800" fill="hsla(261, 72%, 30%, 0.42)" stroke="none"></circle><rect width="66.66666666666667" height="61.53846153846154" x="66.66666666666667" y="800" opacity="0.15"></rect><circle r="3.75" cx="66.66666666666667" cy="800" fill="hsla(261, 72%, 30%, 0.42)" stroke="none"></circle><rect width="66.66666666666667" height="61.53846153846154" x="133.33333333333334" y="800" opacity="0.15"></rect><circle r="3.75" cx="133.33333333333334" cy="800" fill="hsla(261, 72%, 30%, 0.42)" stroke="none"></circle><rect width="66.66666666666667" height="61.53846153846154" x="200" y="800" opacity="0.15"></rect><circle r="3.75" cx="200" cy="800" fill="hsla(261, 72%, 30%, 0.42)" stroke="none"></circle><rect width="66.66666666666667" height="61.53846153846154" x="266.6666666666667" y="800" opacity="0.15"></rect><circle r="3.75" cx="266.6666666666667" cy="800" fill="hsla(261, 72%, 30%, 0.42)" stroke="none"></circle><rect width="66.66666666666667" height="61.53846153846154" x="333.33333333333337" y="800" opacity="0.15"></rect><circle r="3.75" cx="333.33333333333337" cy="800" fill="hsla(261, 72%, 30%, 0.42)" stroke="none"></circle><rect width="66.66666666666667" height="61.53846153846154" x="400.00000000000006" y="800" opacity="0.15"></rect><circle r="3.75" cx="400.00000000000006" cy="800" fill="hsla(261, 72%, 30%, 0.42)" stroke="none"></circle><rect width="66.66666666666667" height="61.53846153846154" x="466.66666666666674" y="800" opacity="0.15"></rect><circle r="3.75" cx="466.66666666666674" cy="800" fill="hsla(261, 72%, 30%, 0.42)" stroke="none"></circle><rect width="66.66666666666667" height="61.53846153846154" x="533.3333333333334" y="800" opacity="0.15"></rect><circle r="3.75" cx="533.3333333333334" cy="800" fill="hsla(261, 72%, 30%, 0.42)" stroke="none"></circle><rect width="66.66666666666667" height="61.53846153846154" x="600" y="800" opacity="0.15"></rect><circle r="3.75" cx="600" cy="800" fill="hsla(261, 72%, 30%, 0.42)" stroke="none"></circle><rect width="66.66666666666667" height="61.53846153846154" x="666.6666666666666" y="800" opacity="0.15"></rect><circle r="3.75" cx="666.6666666666666" cy="800" fill="hsla(261, 72%, 30%, 0.42)" stroke="none"></circle><rect width="66.66666666666667" height="61.53846153846154" x="733.3333333333333" y="800" opacity="0.15"></rect><circle r="3.75" cx="733.3333333333333" cy="800" fill="hsla(261, 72%, 30%, 0.42)" stroke="none"></circle><rect width="66.66666666666667" height="61.53846153846154" x="799.9999999999999" y="800" opacity="0.15"></rect><circle r="3.75" cx="799.9999999999999" cy="800" fill="hsla(261, 72%, 30%, 0.42)" stroke="none"></circle></g></svg>